<svg xmlns="http://www.w3.org/2000/svg" width="480" height="168" viewBox="0 0 480 168" font-family="sans-serif" shape-rendering="geometricPrecision"><rect x="0" y="0" width="480" height="168" fill="white"/><text x="260" y="160" text-anchor="middle" font-size="11" font-style="italic">score</text><text x="16" y="76" text-anchor="middle" font-size="11" font-style="italic" transform="rotate(-90 16 76)"></text><g stroke="#bbb" stroke-width="1" fill="none"><line x1="56" y1="28" x2="56" y2="124" stroke="#eee"/><line x1="114.286" y1="28" x2="114.286" y2="124" stroke="#eee"/><line x1="172.571" y1="28" x2="172.571" y2="124" stroke="#eee"/><line x1="230.857" y1="28" x2="230.857" y2="124" stroke="#eee"/><line x1="289.143" y1="28" x2="289.143" y2="124" stroke="#eee"/><line x1="347.429" y1="28" x2="347.429" y2="124" stroke="#eee"/><line x1="405.714" y1="28" x2="405.714" y2="124" stroke="#eee"/><line x1="464" y1="28" x2="464" y2="124" stroke="#eee"/><line x1="56" y1="124" x2="464" y2="124" stroke="#888"/></g><text x="56" y="138" font-size="10" text-anchor="middle" fill="#444">60</text><text x="114.286" y="138" font-size="10" text-anchor="middle" fill="#444">65</text><text x="172.571" y="138" font-size="10" text-anchor="middle" fill="#444">70</text><text x="230.857" y="138" font-size="10" text-anchor="middle" fill="#444">75</text><text x="289.143" y="138" font-size="10" text-anchor="middle" fill="#444">80</text><text x="347.429" y="138" font-size="10" text-anchor="middle" fill="#444">85</text><text x="405.714" y="138" font-size="10" text-anchor="middle" fill="#444">90</text><text x="464" y="138" font-size="10" text-anchor="middle" fill="#444">95</text><line x1="79.3143" y1="83.68" x2="417.371" y2="83.68" stroke="#444"/><line x1="79.3143" y1="71.2" x2="79.3143" y2="96.16" stroke="#444"/><line x1="417.371" y1="71.2" x2="417.371" y2="96.16" stroke="#444"/><rect x="175.486" y="58.72" width="128.229" height="49.92" fill="#4f8cff" fill-opacity="0.35" stroke="#4f8cff"/><line x1="248.343" y1="58.72" x2="248.343" y2="108.64" stroke="#1b4fa0" stroke-width="2"/><text x="260" y="38" font-size="10" fill="#555" text-anchor="middle">min 62  q1 70.25  median 76.5  q3 81.25  max 91</text></svg>