<svg xmlns="http://www.w3.org/2000/svg" width="480" height="320" viewBox="0 0 480 320" font-family="sans-serif" shape-rendering="geometricPrecision"><rect x="0" y="0" width="480" height="320" fill="white"/><text x="260" y="312" text-anchor="middle" font-size="11" font-style="italic">hours</text><text x="16" y="152" text-anchor="middle" font-size="11" font-style="italic" transform="rotate(-90 16 152)">score</text><g stroke="#bbb" stroke-width="1" fill="none"><line x1="56" y1="276" x2="464" y2="276" stroke="#eee"/><line x1="56" y1="240.571" x2="464" y2="240.571" stroke="#eee"/><line x1="56" y1="205.143" x2="464" y2="205.143" stroke="#eee"/><line x1="56" y1="169.714" x2="464" y2="169.714" stroke="#eee"/><line x1="56" y1="134.286" x2="464" y2="134.286" stroke="#eee"/><line x1="56" y1="98.8571" x2="464" y2="98.8571" stroke="#eee"/><line x1="56" y1="63.4286" x2="464" y2="63.4286" stroke="#eee"/><line x1="56" y1="28" x2="464" y2="28" stroke="#eee"/><line x1="56" y1="28" x2="56" y2="276" stroke="#888"/></g><text x="50" y="276" font-size="10" text-anchor="end" fill="#444" dominant-baseline="middle">60</text><text x="50" y="240.571" font-size="10" text-anchor="end" fill="#444" dominant-baseline="middle">65</text><text x="50" y="205.143" font-size="10" text-anchor="end" fill="#444" dominant-baseline="middle">70</text><text x="50" y="169.714" font-size="10" text-anchor="end" fill="#444" dominant-baseline="middle">75</text><text x="50" y="134.286" font-size="10" text-anchor="end" fill="#444" dominant-baseline="middle">80</text><text x="50" y="98.8571" font-size="10" text-anchor="end" fill="#444" dominant-baseline="middle">85</text><text x="50" y="63.4286" font-size="10" text-anchor="end" fill="#444" dominant-baseline="middle">90</text><text x="50" y="28" font-size="10" text-anchor="end" fill="#444" dominant-baseline="middle">95</text><g stroke="#bbb" stroke-width="1" fill="none"><line x1="56" y1="28" x2="56" y2="276" stroke="#eee"/><line x1="107" y1="28" x2="107" y2="276" stroke="#eee"/><line x1="158" y1="28" x2="158" y2="276" stroke="#eee"/><line x1="209" y1="28" x2="209" y2="276" stroke="#eee"/><line x1="260" y1="28" x2="260" y2="276" stroke="#eee"/><line x1="311" y1="28" x2="311" y2="276" stroke="#eee"/><line x1="362" y1="28" x2="362" y2="276" stroke="#eee"/><line x1="413" y1="28" x2="413" y2="276" stroke="#eee"/><line x1="464" y1="28" x2="464" y2="276" stroke="#eee"/><line x1="56" y1="276" x2="464" y2="276" stroke="#888"/></g><text x="56" y="290" font-size="10" text-anchor="middle" fill="#444">2</text><text x="107" y="290" font-size="10" text-anchor="middle" fill="#444">3</text><text x="158" y="290" font-size="10" text-anchor="middle" fill="#444">4</text><text x="209" y="290" font-size="10" text-anchor="middle" fill="#444">5</text><text x="260" y="290" font-size="10" text-anchor="middle" fill="#444">6</text><text x="311" y="290" font-size="10" text-anchor="middle" fill="#444">7</text><text x="362" y="290" font-size="10" text-anchor="middle" fill="#444">8</text><text x="413" y="290" font-size="10" text-anchor="middle" fill="#444">9</text><text x="464" y="290" font-size="10" text-anchor="middle" fill="#444">10</text><circle cx="56" cy="261.829" r="3.5" fill="#4f8cff" opacity="0.85"/><circle cx="158" cy="198.057" r="3.5" fill="#f2994a" opacity="0.85"/><circle cx="209" cy="176.8" r="3.5" fill="#4f8cff" opacity="0.85"/><circle cx="311" cy="134.286" r="3.5" fill="#27ae60" opacity="0.85"/><circle cx="362" cy="98.8571" r="3.5" fill="#f2994a" opacity="0.85"/><circle cx="107" cy="219.314" r="3.5" fill="#4f8cff" opacity="0.85"/><circle cx="464" cy="56.3429" r="3.5" fill="#27ae60" opacity="0.85"/><circle cx="260" cy="141.371" r="3.5" fill="#f2994a" opacity="0.85"/><rect x="398.8" y="32" width="61.2" height="48" fill="white" fill-opacity="0.85" stroke="#ddd"/><rect x="403.8" y="36" width="8" height="8" fill="#4f8cff"/><text x="416.8" y="43" font-size="10" fill="#333">first</text><rect x="403.8" y="50" width="8" height="8" fill="#f2994a"/><text x="416.8" y="57" font-size="10" fill="#333">second</text><rect x="403.8" y="64" width="8" height="8" fill="#27ae60"/><text x="416.8" y="71" font-size="10" fill="#333">third</text></svg>